<svg xmlns="http://www.w3.org/2000/svg" xmlns:xlink="http://www.w3.org/1999/xlink" width="254" zoomAndPan="magnify" viewBox="0 0 190.5 190.499993" height="254" preserveAspectRatio="xMidYMid meet" version="1.0"><path fill="#ffffff" d="M 0 0 L 190 0 L 190 190 L 0 190 Z M 0 0 " fill-opacity="1" fill-rule="nonzero"/><path fill="#ffffff" d="M 0 0 L 190 0 L 190 190 L 0 190 Z M 0 0 " fill-opacity="1" fill-rule="nonzero"/><path fill="#0077d4" d="M 97.703125 47.035156 L 90.777344 36.503906 L 100.191406 45.914062 L 108.179688 53.90625 C 107.792969 54.5 107.4375 55.117188 107.125 55.757812 C 106.808594 56.394531 106.53125 57.050781 106.292969 57.71875 C 106.054688 58.390625 105.855469 59.074219 105.695312 59.765625 C 105.539062 60.460938 105.421875 61.164062 105.347656 61.871094 C 105.273438 62.578125 105.242188 63.289062 105.25 64 C 105.261719 64.710938 105.3125 65.421875 105.40625 66.125 C 105.5 66.832031 105.632812 67.53125 105.808594 68.21875 C 105.988281 68.910156 106.203125 69.585938 106.460938 70.25 C 106.714844 70.914062 107.011719 71.5625 107.34375 72.191406 C 107.675781 72.820312 108.046875 73.425781 108.453125 74.011719 C 108.855469 74.597656 109.292969 75.15625 109.765625 75.691406 C 110.238281 76.222656 110.738281 76.726562 111.269531 77.203125 C 111.800781 77.675781 112.359375 78.117188 112.941406 78.527344 C 113.523438 78.933594 114.128906 79.304688 114.757812 79.640625 C 115.386719 79.976562 116.03125 80.277344 116.691406 80.535156 C 117.355469 80.796875 118.03125 81.015625 118.71875 81.195312 C 119.410156 81.375 120.105469 81.515625 120.8125 81.609375 C 121.515625 81.707031 122.226562 81.761719 122.9375 81.777344 C 123.648438 81.789062 124.359375 81.761719 125.066406 81.691406 C 125.777344 81.617188 126.476562 81.507812 127.171875 81.351562 C 127.867188 81.199219 128.550781 81.003906 129.222656 80.769531 C 129.894531 80.53125 130.550781 80.257812 131.191406 79.945312 C 131.828125 79.632812 132.449219 79.285156 133.046875 78.898438 C 133.644531 78.511719 134.21875 78.089844 134.765625 77.636719 C 135.3125 77.183594 135.832031 76.699219 136.324219 76.183594 C 136.816406 75.667969 137.273438 75.125 137.699219 74.554688 C 138.125 73.984375 138.519531 73.390625 138.875 72.773438 C 139.230469 72.15625 139.550781 71.523438 139.828125 70.867188 C 140.109375 70.214844 140.351562 69.546875 140.554688 68.863281 C 140.753906 68.179688 140.914062 67.488281 141.035156 66.785156 C 141.15625 66.085938 141.234375 65.378906 141.269531 64.667969 C 141.304688 63.957031 141.296875 63.246094 141.25 62.535156 C 141.203125 61.824219 141.113281 61.121094 140.980469 60.421875 C 140.847656 59.722656 140.675781 59.03125 140.460938 58.351562 C 140.25 57.671875 139.996094 57.007812 139.703125 56.359375 C 139.410156 55.710938 139.082031 55.082031 138.714844 54.472656 C 138.347656 53.859375 137.945312 53.273438 137.507812 52.710938 C 137.074219 52.148438 136.605469 51.613281 136.105469 51.109375 C 135.605469 50.601562 135.078125 50.125 134.523438 49.679688 C 133.964844 49.238281 133.386719 48.828125 132.78125 48.449219 C 132.175781 48.074219 131.550781 47.738281 130.90625 47.433594 C 130.261719 47.132812 129.601562 46.871094 128.925781 46.648438 C 128.25 46.425781 127.5625 46.242188 126.863281 46.097656 C 126.167969 45.957031 125.464844 45.855469 124.753906 45.796875 C 124.042969 45.738281 123.332031 45.722656 122.621094 45.75 C 121.910156 45.773438 121.203125 45.84375 120.5 45.953125 C 119.796875 46.0625 119.101562 46.210938 118.417969 46.402344 C 117.730469 46.59375 117.058594 46.828125 116.402344 47.097656 L 125.148438 60.398438 L 113.414062 48.671875 L 105.425781 40.679688 C 105.6875 40.214844 105.921875 39.738281 106.128906 39.246094 C 106.335938 38.757812 106.515625 38.253906 106.664062 37.742188 C 106.8125 37.230469 106.933594 36.710938 107.023438 36.1875 C 107.113281 35.660156 107.171875 35.132812 107.199219 34.597656 C 107.226562 34.066406 107.222656 33.535156 107.191406 33.003906 C 107.15625 32.46875 107.09375 31.941406 107 31.417969 C 106.90625 30.890625 106.78125 30.375 106.625 29.863281 C 106.472656 29.355469 106.289062 28.855469 106.078125 28.363281 C 105.863281 27.875 105.625 27.398438 105.359375 26.9375 C 105.089844 26.476562 104.796875 26.03125 104.480469 25.605469 C 104.160156 25.175781 103.820312 24.769531 103.453125 24.382812 C 103.089844 23.992188 102.703125 23.628906 102.292969 23.285156 C 101.886719 22.941406 101.460938 22.621094 101.015625 22.328125 C 100.570312 22.035156 100.109375 21.765625 99.632812 21.527344 C 99.160156 21.285156 98.671875 21.070312 98.171875 20.886719 C 97.667969 20.703125 97.160156 20.546875 96.640625 20.421875 C 96.125 20.296875 95.601562 20.203125 95.070312 20.136719 C 94.542969 20.070312 94.011719 20.035156 93.476562 20.03125 C 92.945312 20.03125 92.414062 20.054688 91.882812 20.113281 C 91.351562 20.171875 90.828125 20.261719 90.308594 20.378906 C 89.789062 20.496094 89.277344 20.644531 88.773438 20.824219 C 88.273438 21 87.78125 21.207031 87.300781 21.441406 C 86.824219 21.675781 86.359375 21.9375 85.910156 22.222656 C 85.460938 22.511719 85.03125 22.824219 84.617188 23.164062 C 84.207031 23.5 83.8125 23.863281 83.441406 24.246094 C 83.074219 24.628906 82.726562 25.03125 82.402344 25.453125 C 82.078125 25.878906 81.777344 26.316406 81.503906 26.777344 C 81.230469 27.234375 80.984375 27.707031 80.765625 28.191406 C 80.546875 28.679688 80.355469 29.175781 80.195312 29.683594 C 80.035156 30.191406 79.902344 30.707031 79.800781 31.230469 C 79.699219 31.753906 79.628906 32.28125 79.589844 32.8125 C 79.546875 33.34375 79.539062 33.878906 79.558594 34.410156 C 79.578125 34.941406 79.632812 35.472656 79.714844 36 C 79.796875 36.527344 79.90625 37.046875 80.050781 37.558594 C 80.191406 38.074219 80.363281 38.578125 80.5625 39.070312 C 80.765625 39.566406 80.992188 40.046875 81.25 40.515625 C 81.503906 40.980469 81.789062 41.433594 82.097656 41.867188 C 82.402344 42.304688 82.738281 42.71875 83.09375 43.117188 C 83.449219 43.511719 83.828125 43.886719 84.226562 44.238281 C 84.625 44.59375 85.046875 44.921875 85.484375 45.226562 C 85.921875 45.53125 86.375 45.808594 86.84375 46.0625 C 87.316406 46.3125 87.796875 46.535156 88.292969 46.734375 C 88.789062 46.929688 89.292969 47.097656 89.808594 47.234375 C 90.324219 47.371094 90.847656 47.480469 91.375 47.554688 C 91.902344 47.632812 92.429688 47.679688 92.964844 47.695312 C 93.496094 47.714844 94.03125 47.699219 94.5625 47.652344 C 95.09375 47.609375 95.617188 47.53125 96.140625 47.425781 C 96.664062 47.320312 97.179688 47.183594 97.683594 47.015625 Z M 97.703125 47.035156 " fill-opacity="1" fill-rule="nonzero"/><path fill="#0077d4" d="M 165.5 80.5 C 164.953125 79.953125 164.363281 79.457031 163.734375 79.007812 C 163.105469 78.5625 162.445312 78.167969 161.75 77.832031 C 161.054688 77.496094 160.335938 77.21875 159.59375 77 C 158.855469 76.785156 158.097656 76.628906 157.332031 76.539062 C 156.566406 76.449219 155.796875 76.421875 155.023438 76.460938 C 154.253906 76.5 153.492188 76.601562 152.734375 76.769531 C 151.980469 76.933594 151.246094 77.160156 150.53125 77.449219 C 149.8125 77.742188 149.125 78.085938 148.46875 78.492188 C 147.8125 78.894531 147.191406 79.351562 146.609375 79.859375 C 146.027344 80.367188 145.492188 80.921875 145.003906 81.519531 C 144.515625 82.117188 144.078125 82.75 143.695312 83.421875 C 143.3125 84.09375 142.988281 84.792969 142.722656 85.515625 C 142.457031 86.242188 142.253906 86.984375 142.109375 87.742188 C 141.96875 88.503906 141.890625 89.269531 141.878906 90.039062 C 141.863281 90.8125 141.914062 91.582031 142.03125 92.34375 C 142.148438 93.109375 142.324219 93.855469 142.566406 94.589844 L 153.097656 87.667969 L 135.695312 105.070312 C 135.097656 104.679688 134.480469 104.328125 133.84375 104.011719 C 133.207031 103.695312 132.550781 103.417969 131.882812 103.179688 C 131.210938 102.941406 130.527344 102.742188 129.835938 102.585938 C 129.140625 102.429688 128.441406 102.3125 127.730469 102.238281 C 127.023438 102.164062 126.316406 102.132812 125.601562 102.140625 C 124.890625 102.152344 124.183594 102.203125 123.476562 102.296875 C 122.773438 102.390625 122.074219 102.523438 121.382812 102.699219 C 120.695312 102.875 120.019531 103.09375 119.355469 103.347656 C 118.691406 103.605469 118.042969 103.902344 117.414062 104.234375 C 116.785156 104.566406 116.179688 104.9375 115.59375 105.339844 C 115.007812 105.746094 114.449219 106.183594 113.914062 106.65625 C 113.382812 107.125 112.878906 107.628906 112.40625 108.160156 C 111.929688 108.6875 111.488281 109.246094 111.082031 109.828125 C 110.675781 110.414062 110.300781 111.019531 109.964844 111.644531 C 109.628906 112.273438 109.332031 112.917969 109.070312 113.582031 C 108.8125 114.242188 108.59375 114.917969 108.414062 115.605469 C 108.234375 116.296875 108.09375 116.992188 107.996094 117.699219 C 107.902344 118.402344 107.84375 119.109375 107.832031 119.824219 C 107.820312 120.535156 107.847656 121.242188 107.917969 121.953125 C 107.988281 122.660156 108.101562 123.363281 108.257812 124.058594 C 108.410156 124.75 108.605469 125.433594 108.839844 126.105469 C 109.074219 126.777344 109.347656 127.433594 109.660156 128.074219 C 109.976562 128.710938 110.324219 129.332031 110.710938 129.929688 C 111.097656 130.527344 111.515625 131.101562 111.96875 131.648438 C 112.425781 132.195312 112.910156 132.714844 113.425781 133.207031 C 113.941406 133.695312 114.484375 134.15625 115.050781 134.582031 C 115.621094 135.007812 116.214844 135.398438 116.832031 135.753906 C 117.449219 136.113281 118.082031 136.429688 118.738281 136.710938 C 119.390625 136.992188 120.058594 137.234375 120.742188 137.433594 C 121.425781 137.636719 122.117188 137.796875 122.816406 137.917969 C 123.519531 138.035156 124.226562 138.113281 124.9375 138.148438 C 125.648438 138.183594 126.359375 138.179688 127.066406 138.132812 C 127.777344 138.082031 128.484375 137.992188 129.183594 137.859375 C 129.882812 137.730469 130.570312 137.554688 131.25 137.34375 C 131.929688 137.128906 132.59375 136.875 133.242188 136.585938 C 133.890625 136.292969 134.519531 135.960938 135.128906 135.597656 C 135.738281 135.230469 136.328125 134.828125 136.886719 134.390625 C 137.449219 133.957031 137.984375 133.488281 138.492188 132.988281 C 139 132.488281 139.476562 131.960938 139.917969 131.40625 C 140.363281 130.847656 140.773438 130.269531 141.148438 129.664062 C 141.523438 129.058594 141.863281 128.433594 142.164062 127.789062 C 142.464844 127.144531 142.730469 126.484375 142.953125 125.808594 C 143.175781 125.132812 143.359375 124.445312 143.5 123.75 C 143.640625 123.050781 143.742188 122.347656 143.800781 121.640625 C 143.859375 120.929688 143.875 120.21875 143.851562 119.507812 C 143.824219 118.796875 143.757812 118.089844 143.648438 117.386719 C 143.539062 116.683594 143.386719 115.988281 143.195312 115.304688 C 143.003906 114.617188 142.773438 113.945312 142.503906 113.289062 L 129.199219 122.03125 L 140.929688 110.304688 L 148.921875 102.3125 C 149.644531 102.71875 150.394531 103.054688 151.179688 103.324219 C 151.960938 103.597656 152.761719 103.792969 153.582031 103.921875 C 154.398438 104.046875 155.222656 104.097656 156.050781 104.078125 C 156.878906 104.054688 157.699219 103.960938 158.507812 103.792969 C 159.320312 103.625 160.109375 103.382812 160.875 103.074219 C 161.644531 102.765625 162.378906 102.386719 163.078125 101.945312 C 163.777344 101.503906 164.433594 101.003906 165.042969 100.441406 C 165.65625 99.882812 166.210938 99.273438 166.710938 98.613281 C 167.210938 97.953125 167.652344 97.253906 168.027344 96.519531 C 168.402344 95.78125 168.707031 95.015625 168.945312 94.21875 C 169.183594 93.425781 169.351562 92.617188 169.441406 91.796875 C 169.535156 90.972656 169.554688 90.148438 169.5 89.320312 C 169.445312 88.496094 169.316406 87.679688 169.113281 86.878906 C 168.914062 86.074219 168.640625 85.296875 168.300781 84.539062 C 167.960938 83.785156 167.554688 83.066406 167.085938 82.386719 C 166.613281 81.703125 166.085938 81.070312 165.503906 80.484375 Z M 165.5 80.5 " fill-opacity="1" fill-rule="nonzero"/><path fill="#0077d4" d="M 92.019531 142.441406 L 98.945312 152.976562 L 81.542969 135.574219 C 81.929688 134.976562 82.285156 134.359375 82.601562 133.722656 C 82.914062 133.082031 83.191406 132.429688 83.433594 131.757812 C 83.671875 131.085938 83.867188 130.40625 84.027344 129.710938 C 84.183594 129.015625 84.300781 128.316406 84.375 127.609375 C 84.449219 126.898438 84.480469 126.191406 84.472656 125.476562 C 84.460938 124.765625 84.410156 124.058594 84.316406 123.351562 C 84.222656 122.644531 84.089844 121.949219 83.914062 121.257812 C 83.734375 120.570312 83.519531 119.890625 83.261719 119.226562 C 83.007812 118.5625 82.710938 117.917969 82.378906 117.289062 C 82.046875 116.660156 81.675781 116.050781 81.273438 115.464844 C 80.867188 114.878906 80.429688 114.320312 79.957031 113.789062 C 79.484375 113.253906 78.984375 112.75 78.453125 112.277344 C 77.921875 111.800781 77.363281 111.359375 76.78125 110.953125 C 76.199219 110.542969 75.59375 110.171875 74.964844 109.835938 C 74.339844 109.5 73.691406 109.203125 73.03125 108.941406 C 72.367188 108.683594 71.691406 108.460938 71.003906 108.28125 C 70.3125 108.101562 69.617188 107.964844 68.910156 107.867188 C 68.207031 107.769531 67.496094 107.714844 66.785156 107.703125 C 66.074219 107.6875 65.363281 107.71875 64.65625 107.789062 C 63.949219 107.859375 63.246094 107.972656 62.550781 108.125 C 61.855469 108.28125 61.171875 108.476562 60.5 108.710938 C 59.828125 108.945312 59.171875 109.21875 58.53125 109.53125 C 57.894531 109.84375 57.273438 110.195312 56.675781 110.582031 C 56.078125 110.964844 55.503906 111.386719 54.957031 111.839844 C 54.410156 112.296875 53.890625 112.78125 53.398438 113.296875 C 52.90625 113.8125 52.449219 114.355469 52.023438 114.925781 C 51.597656 115.496094 51.203125 116.085938 50.847656 116.703125 C 50.492188 117.320312 50.175781 117.957031 49.894531 118.609375 C 49.613281 119.265625 49.371094 119.933594 49.167969 120.613281 C 48.96875 121.296875 48.808594 121.988281 48.6875 122.691406 C 48.566406 123.394531 48.488281 124.101562 48.453125 124.8125 C 48.417969 125.523438 48.425781 126.234375 48.472656 126.941406 C 48.519531 127.652344 48.609375 128.359375 48.742188 129.058594 C 48.875 129.757812 49.046875 130.445312 49.261719 131.125 C 49.476562 131.804688 49.726562 132.46875 50.019531 133.117188 C 50.3125 133.765625 50.640625 134.398438 51.007812 135.007812 C 51.375 135.617188 51.777344 136.203125 52.214844 136.765625 C 52.648438 137.328125 53.117188 137.863281 53.617188 138.371094 C 54.117188 138.878906 54.644531 139.351562 55.203125 139.796875 C 55.757812 140.242188 56.339844 140.652344 56.941406 141.027344 C 57.546875 141.402344 58.171875 141.742188 58.816406 142.042969 C 59.460938 142.34375 60.121094 142.609375 60.796875 142.832031 C 61.472656 143.054688 62.160156 143.238281 62.859375 143.378906 C 63.554688 143.519531 64.261719 143.621094 64.96875 143.679688 C 65.679688 143.738281 66.390625 143.753906 67.101562 143.730469 C 67.8125 143.703125 68.519531 143.636719 69.222656 143.527344 C 69.925781 143.417969 70.621094 143.265625 71.304688 143.074219 C 71.992188 142.882812 72.664062 142.652344 73.320312 142.378906 L 64.574219 129.078125 L 76.308594 140.808594 L 84.292969 148.796875 C 84.03125 149.261719 83.796875 149.738281 83.585938 150.230469 C 83.378906 150.722656 83.203125 151.226562 83.050781 151.738281 C 82.902344 152.25 82.78125 152.769531 82.691406 153.292969 C 82.601562 153.820312 82.542969 154.347656 82.515625 154.882812 C 82.488281 155.414062 82.488281 155.949219 82.523438 156.480469 C 82.554688 157.011719 82.621094 157.542969 82.714844 158.066406 C 82.808594 158.59375 82.933594 159.109375 83.085938 159.621094 C 83.242188 160.132812 83.425781 160.632812 83.636719 161.121094 C 83.847656 161.609375 84.089844 162.085938 84.355469 162.546875 C 84.621094 163.011719 84.914062 163.457031 85.234375 163.882812 C 85.550781 164.3125 85.894531 164.71875 86.261719 165.109375 C 86.625 165.496094 87.011719 165.863281 87.421875 166.207031 C 87.828125 166.550781 88.253906 166.871094 88.699219 167.164062 C 89.144531 167.457031 89.605469 167.726562 90.082031 167.96875 C 90.558594 168.210938 91.046875 168.421875 91.546875 168.605469 C 92.046875 168.792969 92.554688 168.945312 93.074219 169.074219 C 93.59375 169.199219 94.117188 169.292969 94.648438 169.359375 C 95.175781 169.425781 95.707031 169.460938 96.242188 169.464844 C 96.773438 169.46875 97.308594 169.441406 97.835938 169.382812 C 98.367188 169.324219 98.894531 169.238281 99.414062 169.117188 C 99.933594 169 100.445312 168.851562 100.949219 168.675781 C 101.453125 168.496094 101.941406 168.289062 102.421875 168.054688 C 102.902344 167.820312 103.367188 167.558594 103.816406 167.273438 C 104.265625 166.984375 104.695312 166.671875 105.109375 166.332031 C 105.519531 165.996094 105.914062 165.636719 106.285156 165.25 C 106.65625 164.867188 107.003906 164.464844 107.328125 164.042969 C 107.652344 163.617188 107.953125 163.175781 108.226562 162.71875 C 108.5 162.261719 108.746094 161.789062 108.964844 161.304688 C 109.183594 160.816406 109.375 160.320312 109.535156 159.808594 C 109.695312 159.300781 109.828125 158.785156 109.929688 158.261719 C 110.03125 157.738281 110.101562 157.210938 110.144531 156.679688 C 110.183594 156.144531 110.195312 155.613281 110.175781 155.082031 C 110.152344 154.546875 110.101562 154.015625 110.019531 153.488281 C 109.9375 152.960938 109.824219 152.441406 109.683594 151.925781 C 109.542969 151.414062 109.371094 150.910156 109.167969 150.414062 C 108.96875 149.921875 108.738281 149.4375 108.484375 148.972656 C 108.226562 148.503906 107.945312 148.050781 107.636719 147.617188 C 107.328125 147.179688 106.996094 146.765625 106.640625 146.367188 C 106.28125 145.96875 105.90625 145.59375 105.503906 145.242188 C 105.105469 144.890625 104.6875 144.558594 104.246094 144.253906 C 103.808594 143.949219 103.355469 143.671875 102.886719 143.421875 C 102.414062 143.167969 101.933594 142.945312 101.4375 142.746094 C 100.941406 142.550781 100.433594 142.382812 99.917969 142.246094 C 99.402344 142.109375 98.882812 142 98.355469 141.921875 C 97.824219 141.84375 97.296875 141.796875 96.761719 141.78125 C 96.230469 141.765625 95.695312 141.78125 95.164062 141.824219 C 94.632812 141.871094 94.105469 141.945312 93.582031 142.050781 C 93.058594 142.160156 92.546875 142.292969 92.039062 142.460938 Z M 92.019531 142.441406 " fill-opacity="1" fill-rule="nonzero"/><path fill="#0077d4" d="M 36.625 101.8125 L 54.027344 84.410156 C 54.625 84.796875 55.242188 85.148438 55.878906 85.464844 C 56.515625 85.78125 57.171875 86.058594 57.839844 86.296875 C 58.511719 86.535156 59.195312 86.734375 59.886719 86.890625 C 60.582031 87.050781 61.28125 87.164062 61.992188 87.238281 C 62.699219 87.3125 63.410156 87.347656 64.121094 87.335938 C 64.832031 87.328125 65.539062 87.277344 66.246094 87.183594 C 66.953125 87.089844 67.648438 86.953125 68.339844 86.777344 C 69.027344 86.601562 69.703125 86.386719 70.367188 86.128906 C 71.03125 85.871094 71.679688 85.578125 72.308594 85.246094 C 72.9375 84.910156 73.542969 84.542969 74.128906 84.136719 C 74.714844 83.734375 75.273438 83.292969 75.808594 82.824219 C 76.339844 82.351562 76.84375 81.851562 77.316406 81.320312 C 77.792969 80.789062 78.234375 80.230469 78.640625 79.648438 C 79.050781 79.066406 79.421875 78.460938 79.757812 77.832031 C 80.09375 77.207031 80.390625 76.5625 80.652344 75.898438 C 80.910156 75.234375 81.128906 74.558594 81.308594 73.871094 C 81.488281 73.183594 81.628906 72.484375 81.726562 71.78125 C 81.824219 71.074219 81.878906 70.367188 81.890625 69.65625 C 81.902344 68.945312 81.875 68.234375 81.804688 67.527344 C 81.734375 66.816406 81.621094 66.117188 81.464844 65.421875 C 81.3125 64.726562 81.117188 64.042969 80.882812 63.371094 C 80.648438 62.699219 80.375 62.042969 80.0625 61.40625 C 79.75 60.765625 79.398438 60.148438 79.011719 59.550781 C 78.625 58.953125 78.207031 58.378906 77.753906 57.832031 C 77.296875 57.28125 76.8125 56.761719 76.296875 56.273438 C 75.78125 55.78125 75.238281 55.324219 74.671875 54.894531 C 74.101562 54.46875 73.507812 54.078125 72.890625 53.722656 C 72.273438 53.367188 71.640625 53.046875 70.984375 52.765625 C 70.332031 52.488281 69.664062 52.246094 68.980469 52.042969 C 68.296875 51.84375 67.605469 51.679688 66.90625 51.5625 C 66.203125 51.441406 65.496094 51.363281 64.785156 51.328125 C 64.074219 51.292969 63.363281 51.300781 62.65625 51.347656 C 61.945312 51.394531 61.238281 51.484375 60.539062 51.617188 C 59.839844 51.75 59.152344 51.921875 58.472656 52.136719 C 57.792969 52.347656 57.128906 52.601562 56.480469 52.894531 C 55.832031 53.1875 55.203125 53.515625 54.59375 53.882812 C 53.984375 54.25 53.398438 54.648438 52.835938 55.085938 C 52.273438 55.523438 51.738281 55.992188 51.230469 56.488281 C 50.722656 56.988281 50.25 57.515625 49.804688 58.074219 C 49.359375 58.628906 48.949219 59.210938 48.574219 59.8125 C 48.199219 60.417969 47.859375 61.042969 47.558594 61.6875 C 47.257812 62.332031 46.992188 62.992188 46.769531 63.667969 C 46.546875 64.34375 46.363281 65.03125 46.222656 65.726562 C 46.082031 66.425781 45.980469 67.128906 45.921875 67.839844 C 45.863281 68.546875 45.847656 69.257812 45.871094 69.96875 C 45.898438 70.679688 45.964844 71.386719 46.074219 72.089844 C 46.183594 72.792969 46.335938 73.488281 46.527344 74.175781 C 46.71875 74.859375 46.949219 75.53125 47.21875 76.1875 L 60.523438 67.445312 L 48.792969 79.175781 L 40.800781 87.164062 C 40.339844 86.902344 39.859375 86.667969 39.371094 86.460938 C 38.878906 86.253906 38.375 86.074219 37.863281 85.925781 C 37.351562 85.773438 36.832031 85.65625 36.308594 85.566406 C 35.78125 85.476562 35.253906 85.417969 34.71875 85.390625 C 34.1875 85.363281 33.65625 85.363281 33.121094 85.398438 C 32.589844 85.429688 32.0625 85.496094 31.535156 85.589844 C 31.011719 85.683594 30.492188 85.808594 29.984375 85.960938 C 29.472656 86.117188 28.972656 86.300781 28.484375 86.511719 C 27.992188 86.722656 27.519531 86.964844 27.054688 87.230469 C 26.59375 87.496094 26.148438 87.789062 25.722656 88.109375 C 25.292969 88.425781 24.886719 88.769531 24.496094 89.136719 C 24.109375 89.5 23.742188 89.886719 23.398438 90.296875 C 23.054688 90.703125 22.738281 91.128906 22.445312 91.574219 C 22.148438 92.019531 21.882812 92.480469 21.640625 92.957031 C 21.398438 93.433594 21.1875 93.921875 21.003906 94.421875 C 20.816406 94.921875 20.664062 95.429688 20.535156 95.949219 C 20.410156 96.46875 20.316406 96.992188 20.25 97.519531 C 20.183594 98.050781 20.152344 98.582031 20.148438 99.113281 C 20.144531 99.648438 20.171875 100.179688 20.230469 100.710938 C 20.285156 101.242188 20.375 101.765625 20.492188 102.285156 C 20.613281 102.804688 20.761719 103.316406 20.9375 103.820312 C 21.113281 104.324219 21.320312 104.8125 21.554688 105.292969 C 21.789062 105.773438 22.050781 106.234375 22.339844 106.683594 C 22.628906 107.132812 22.941406 107.566406 23.277344 107.976562 C 23.617188 108.390625 23.976562 108.78125 24.359375 109.152344 C 24.742188 109.523438 25.148438 109.871094 25.570312 110.195312 C 25.992188 110.519531 26.433594 110.820312 26.890625 111.09375 C 27.351562 111.367188 27.824219 111.613281 28.308594 111.832031 C 28.796875 112.050781 29.292969 112.238281 29.800781 112.402344 C 30.308594 112.5625 30.824219 112.695312 31.347656 112.796875 C 31.871094 112.898438 32.398438 112.96875 32.933594 113.007812 C 33.464844 113.050781 33.996094 113.058594 34.53125 113.039062 C 35.0625 113.019531 35.59375 112.964844 36.121094 112.882812 C 36.644531 112.800781 37.167969 112.691406 37.679688 112.546875 C 38.195312 112.40625 38.699219 112.234375 39.191406 112.03125 C 39.6875 111.832031 40.167969 111.605469 40.636719 111.347656 C 41.105469 111.089844 41.554688 110.808594 41.992188 110.5 C 42.425781 110.191406 42.839844 109.859375 43.238281 109.503906 C 43.636719 109.144531 44.011719 108.769531 44.363281 108.367188 C 44.714844 107.96875 45.042969 107.550781 45.347656 107.109375 C 45.652344 106.671875 45.933594 106.21875 46.183594 105.75 C 46.4375 105.277344 46.660156 104.796875 46.855469 104.300781 C 47.050781 103.804688 47.21875 103.296875 47.355469 102.78125 C 47.496094 102.269531 47.601562 101.746094 47.679688 101.21875 C 47.757812 100.691406 47.804688 100.160156 47.820312 99.628906 C 47.835938 99.09375 47.820312 98.5625 47.777344 98.03125 C 47.730469 97.5 47.65625 96.972656 47.546875 96.449219 C 47.441406 95.925781 47.304688 95.410156 47.140625 94.90625 Z M 36.625 101.8125 " fill-opacity="1" fill-rule="nonzero"/></svg>